<?xml version="1.0" encoding="UTF-8" standalone="no"?>
<svg width="980px" height="980px" viewBox="0 0 980 980" version="1.1" xmlns="http://www.w3.org/2000/svg" xmlns:xlink="http://www.w3.org/1999/xlink">
    <!-- Generator: Sketch 39.1 (31720) - http://www.bohemiancoding.com/sketch -->
    <title>Slice 1</title>
    <desc>Created with Sketch.</desc>
    <defs></defs>
    <g id="Page-1" stroke="none" stroke-width="1" fill="none" fill-rule="evenodd">
        <path d="M490,0 C626.1,0 741.8,47.6 837.1,142.9 C932.4,238.2 980,353.9 980,490 C980,624.7 932.4,740.1 837.1,836.1 C741.8,932 626.1,980 490,980 C355.2,980 239.9,932 143.9,836.1 C48,740.1 0,624.8 0,490 C0,353.9 48,238.2 143.9,142.9 C239.9,47.6 355.3,0 490,0 L490,0 M369.5,692.1 L369.5,373.6 L271.5,373.6 L271.5,692.1 L369.5,692.1 L369.5,692.1 M320.5,332.8 C355.9,332.8 373.6,316.5 373.6,283.8 C373.6,251.1 355.9,234.8 320.5,234.8 C305.5,234.8 292.9,239.6 282.7,249.1 C272.5,258.6 267.4,270.2 267.4,283.8 C267.5,316.5 285.2,332.8 320.5,332.8 L320.5,332.8 M733,692.1 L733,504.3 C733,459.4 722.5,425 701.4,401.2 C680.3,377.4 652.7,365.5 618.7,365.5 C573.8,365.5 541.1,382.5 520.7,416.5 L518.7,416.5 L512.6,373.6 L426.8,373.6 C428.2,392.7 428.8,426.7 428.8,475.7 L428.8,692.1 L528.8,692.1 L528.8,508.4 C528.8,496.1 530.2,488 532.9,483.9 C541.1,458 558.1,445.1 583.9,445.1 C616.6,445.1 632.9,468.2 632.9,514.5 L632.9,692.1 L733,692.1 L733,692.1" id="Shape" fill="#36758A"></path>
    </g>
</svg>