<?xml version="1.0" encoding="UTF-8" standalone="no"?>
<svg width="1000px" height="1000px" viewBox="0 0 1000 1000" version="1.1" xmlns="http://www.w3.org/2000/svg" xmlns:xlink="http://www.w3.org/1999/xlink">
    <!-- Generator: Sketch 39.1 (31720) - http://www.bohemiancoding.com/sketch -->
    <title>Slice 1</title>
    <desc>Created with Sketch.</desc>
    <defs></defs>
    <g id="Page-1" stroke="none" stroke-width="1" fill="none" fill-rule="evenodd">
        <path d="M0,499.968 C0,361.956 48.825,244.125 146.475,146.475 C244.125,48.825 361.956,9.47390314e-15 499.968,2.84217094e-14 C637.98,4.73695157e-14 755.811,48.825 853.461,146.475 C951.111,244.125 999.936,361.956 999.936,499.968 C999.936,637.98 951.111,755.811 853.461,853.461 C755.811,951.111 637.98,999.936 499.968,999.936 C361.956,999.936 244.125,951.111 146.475,853.461 C48.825,755.811 8.52651283e-14,637.98 2.84217094e-14,499.968 L0,499.968 Z M249.984,417.942 C249.984,472.626 261.702,515.592 285.138,546.84 L499.968,830.025 L714.798,546.84 C738.234,515.592 749.952,472.626 749.952,417.942 C749.952,348.936 725.539667,290.346 676.715,242.172 C627.890333,193.998 568.975,169.911 499.969,169.911 C430.963,169.911 372.047667,193.998 323.223,242.172 C274.398333,290.346 249.986,348.936 249.986,417.942 L249.984,417.942 Z M394.506,418.919 C394.506,389.623667 404.922,364.885667 425.754,344.705 C446.586,324.524333 471.324,314.434 499.968,314.434 C528.612,314.434 553.35,324.524333 574.182,344.705 C595.014,364.885667 605.43,389.623667 605.43,418.919 C605.43,448.214333 595.014,472.952333 574.182,493.133 C553.35,513.313667 528.612,523.404 499.968,523.404 C471.324,523.404 446.586,513.313667 425.754,493.133 C404.922,472.952333 394.506,448.214333 394.506,418.919 L394.506,418.919 Z" id="Shape" fill="#36758A"></path>
    </g>
</svg>