<?xml version="1.0" encoding="UTF-8" standalone="no"?>
<svg width="50px" height="50px" viewBox="0 0 50 50" version="1.1" xmlns="http://www.w3.org/2000/svg" xmlns:xlink="http://www.w3.org/1999/xlink">
    <!-- Generator: Sketch 39.1 (31720) - http://www.bohemiancoding.com/sketch -->
    <title>Slice 1</title>
    <desc>Created with Sketch.</desc>
    <defs></defs>
    <g id="Page-1" stroke="none" stroke-width="1" fill="none" fill-rule="evenodd">
        <g id="phone" fill="#36758A">
            <path d="M25,0 C11.2,0 0,11.2 0,25 C0,38.8 11.2,50 25,50 C38.8,50 50,38.8 50,25 C50,11.2 38.8,0 25,0 L25,0 Z M38.2,36.5 L36.2,38.5 C35.8,38.9 34.8,39.1 34.8,39.1 C28.5,39.2 22.4,36.7 17.9,32.2 C13.4,27.7 10.9,21.6 11,15.2 C11,15.2 11.2,14.2 11.6,13.8 L13.6,11.8 C14.3,11.1 15.7,10.7 16.7,11.1 L17.1,11.2 C18.1,11.5 19.1,12.6 19.4,13.6 L20.4,17.3 C20.7,18.3 20.3,19.7 19.6,20.5 L18.3,21.8 C19.6,26.7 23.4,30.5 28.3,31.8 L29.6,30.5 C30.3,29.8 31.8,29.4 32.8,29.7 L36.5,30.7 C37.5,31 38.6,32 38.9,33 L39,33.4 C39.3,34.3 38.9,35.7 38.2,36.5 L38.2,36.5 Z" id="Shape"></path>
        </g>
    </g>
</svg>